# xmcd
#
# Track frame offsets:
#	150
#	14622
#	27027
#	39377
#	50995
#	64507
#	76605
#	88910
#	101502
#	111677
#
# Disc length: 1727 seconds
#
# Revision: 0
# Processed by: cddbd v1.5.2PL0 Copyright (c) Steve Scherf et al.
# Submitted via: dBpowerAMP V4.0
#
DISCID=7e06bd0a
DTITLE=Aase and Wolf - Play Buck Owens
DYEAR=1998
DGENRE=country
TTITLE0=Close up the honky tonks
TTITLE1=The way that I love you
TTITLE2=Wxcuse me
TTITLE3=What a lier I am
TTITLE4=Under your spell again
TTITLE5=Your tender lovin' care
TTITLE6=Cinderella
TTITLE7=Truc drivin' man
TTITLE8=A.11
TTITLE9=Medley:Palm of your Hand,Cryin' time,Don't let her know,Only you,
EXTD=Lei Aase and Dag Wolf Play Buck Owen.\nGuest artist is Tom Brumleu from original "Buckaroo"
EXTT0=
EXTT1=
EXTT2=
EXTT3=
EXTT4=
EXTT5=
EXTT6=
EXTT7=
EXTT8=
EXTT9=
PLAYORDER=
